<?xml version="1.0" encoding="UTF-8" standalone="no"?>
<!-- Created with Inkscape (http://www.inkscape.org/) -->

<svg
   width="30mm"
   height="30mm"
   viewBox="0 0 30 30"
   version="1.1"
   id="svg5"
   inkscape:version="1.2.1 (9c6d41e410, 2022-07-14)"
   sodipodi:docname="rysunek.svg"
   xmlns:inkscape="http://www.inkscape.org/namespaces/inkscape"
   xmlns:sodipodi="http://sodipodi.sourceforge.net/DTD/sodipodi-0.dtd"
   xmlns="http://www.w3.org/2000/svg"
   xmlns:svg="http://www.w3.org/2000/svg">
  <sodipodi:namedview
     id="namedview7"
     pagecolor="#ffffff"
     bordercolor="#000000"
     borderopacity="0.25"
     inkscape:showpageshadow="2"
     inkscape:pageopacity="0.0"
     inkscape:pagecheckerboard="0"
     inkscape:deskcolor="#d1d1d1"
     inkscape:document-units="mm"
     showgrid="false"
     inkscape:zoom="2.151319"
     inkscape:cx="164.78263"
     inkscape:cy="109.70014"
     inkscape:window-width="1366"
     inkscape:window-height="705"
     inkscape:window-x="-8"
     inkscape:window-y="-8"
     inkscape:window-maximized="1"
     inkscape:current-layer="layer1" />
  <defs
     id="defs2">
    <clipPath
       clipPathUnits="userSpaceOnUse"
       id="clipPath4241">
      <path
         id="path4243"
         style="fill:#ff0000;fill-opacity:1;fill-rule:nonzero;stroke:none;stroke-width:0.264583"
         d="m 25.174174,30.435867 v 24.513234 c 0.0011,0.03706 0.0016,0.07406 0.0031,0.111103 1.38e-4,0.0011 3.44e-4,0.0016 5.29e-4,0.0026 10e-4,0.0073 0.0024,0.01625 0.0041,0.02894 0.0055,0.04067 0.01094,0.08142 0.01757,0.121957 0.01023,0.03242 0.02086,0.06487 0.03049,0.09767 h 0.384974 c -0.02667,-0.03158 -0.04417,-0.06576 -0.05788,-0.109553 -0.02026,-8.8e-5 -0.03202,-0.0127 -0.04134,-0.02946 -0.01084,-0.02328 -0.0193,-0.04765 -0.0279,-0.07183 -0.0084,-0.02574 -0.01585,-0.05147 -0.02325,-0.07751 -0.0062,-0.02 -0.0117,-0.04039 -0.0155,-0.06098 -0.0012,-0.006 -0.0021,-0.01204 -0.0031,-0.0181 -0.0052,-0.0158 -0.0094,-0.03206 -0.0124,-0.04858 -0.005,-0.02776 -0.0017,-0.05632 0,-0.08423 0.0015,-0.02297 0.0021,-0.04574 0.0026,-0.06873 -0.001,-0.02753 0.0021,-0.05423 0.0078,-0.08113 0.0032,-0.02363 0.01059,-0.04522 0.02015,-0.06615 5.56e-4,-0.0074 0.0011,-0.01476 0.0016,-0.02222 6.88e-4,-0.01085 -1.19e-4,-0.0217 0,-0.03255 -1.56e-4,-0.01556 6e-5,-0.03146 -5.29e-4,-0.04702 -5.03e-4,-0.01503 -0.0015,-0.02995 -0.0026,-0.04496 -6.08e-4,-0.01418 -3.97e-4,-0.02817 -5.29e-4,-0.04238 v -0.03772 -0.04082 c 2e-6,-0.01603 -1.3e-5,-0.03256 0,-0.04857 1.3e-5,-0.01143 -5.9e-5,-0.02267 0,-0.03411 6.8e-5,-0.01188 -1.5e-5,-0.02379 5.29e-4,-0.03566 3.97e-4,-0.009 6.09e-4,-0.01786 0.0021,-0.02687 6.09e-4,-0.0053 8.73e-4,-0.01066 0.001,-0.01601 -0.0022,-0.0045 -0.0036,-0.01043 -0.0036,-0.01757 v -0.02687 -0.02997 -0.02222 c 0,-0.0051 6.88e-4,-0.0097 0.0021,-0.01344 -4.24e-4,-0.0061 -6.88e-4,-0.01212 -0.0016,-0.0181 -0.0012,-0.01452 -0.0021,-0.0289 -5.29e-4,-0.04341 h -5.3e-4 c 0.0042,-0.03785 0.04174,-0.03301 0.03824,0.0052 -3.96e-4,0.0041 2.1e-5,0.0083 0,0.01241 0.0028,-0.0033 0.0065,-0.0051 0.01033,-0.0052 9.26e-4,-1.1e-5 0.0016,1.77e-4 0.0026,5.29e-4 -4.76e-4,-0.0021 -0.0011,-0.0045 -0.0016,-0.0067 -0.01041,-0.0037 -0.01397,-0.01728 -0.0047,-0.03049 -7.68e-4,-0.0053 -0.0021,-0.01058 -0.0021,-0.01601 8.9e-5,-0.01783 0.0082,-0.0273 0.01705,-0.02842 0.0075,-0.0011 0.01543,0.0042 0.01912,0.015 0.0033,-0.0028 0.0066,-0.0055 0.0098,-0.0083 0.01521,-0.01122 0.02843,-0.01762 0.04444,-0.01913 0.0073,-7.94e-4 0.0151,-2.65e-4 0.02377,0.0011 0.03684,0.0078 0.05889,0.01823 0.0832,0.04806 0.03057,0.03844 0.05672,0.07997 0.07855,0.124021 0.0023,0.0044 0.0045,0.009 0.0067,0.01344 V 30.435867 Z m 0.425814,23.515879 c -0.0098,2.64e-4 -0.0169,0.0038 -0.02635,0.01138 -0.0013,0.0011 -0.0028,0.0021 -0.0041,0.0031 v 5.3e-4 c 3.44e-4,0.0021 4.24e-4,0.0044 5.3e-4,0.0067 3.96e-4,0.01585 0.0016,0.03175 0.0031,0.04754 0.0011,0.01505 0.0035,0.03012 0.0062,0.04496 0.01015,-0.0013 0.02139,0.0077 0.0217,0.02791 3.97e-4,0.02037 2.65e-4,0.04112 0.0016,0.06149 10e-4,0.02692 0.002,0.05367 0.0016,0.08062 v 5.29e-4 c 3.97e-4,0.03188 3.44e-4,0.06425 -5.29e-4,0.09612 -0.0013,0.03617 -0.0061,0.07204 -0.0098,0.108006 -0.0016,0.01376 -0.0035,0.02763 -0.0052,0.04134 -0.0011,0.0084 -0.002,0.01685 -0.0031,0.02532 0.0095,0.0021 0.01944,0.0028 0.02842,0.0062 0.0035,0.0013 0.0067,0.003 0.0098,0.0047 0.02247,-0.04068 0.04467,-0.08149 0.06925,-0.120922 0.02785,-0.03929 0.05762,-0.07785 0.09405,-0.109554 v -0.09818 c -0.01278,-0.02881 -0.02649,-0.05722 -0.04082,-0.08527 -0.02069,-0.04174 -0.04537,-0.08093 -0.07441,-0.117306 -0.01803,-0.02236 -0.03358,-0.02932 -0.06098,-0.03462 -0.0041,-5.29e-4 -0.0076,-5.29e-4 -0.01085,-5.29e-4 z m 0.187068,0.501261 c -0.0017,0.0024 -0.0035,0.0048 -0.0052,0.0072 -0.0254,0.04194 -0.04966,0.08472 -0.07338,0.127638 -0.0081,0.01442 -0.01516,0.0293 -0.02274,0.04393 0.0059,0.03713 0.0059,0.07486 0.01654,0.111104 0.01351,0.03996 0.02868,0.07945 0.04237,0.119372 2.29e-4,7.94e-4 0.0011,0.0033 0.0016,0.0047 0.01461,-0.0105 0.02803,-0.02228 0.04082,-0.03514 z m -0.172082,0.368453 c -1.19e-4,0.0019 -3.97e-4,0.0034 -5.29e-4,0.0052 5.02e-4,0.03497 0.0026,0.06997 0.0041,0.104904 0.003,0.02901 0.0061,0.05794 0.0098,0.08681 0.0046,0.0035 0.0095,0.0069 0.01447,0.0098 0.01759,0.01146 0.03733,0.01839 0.05736,0.02429 8.47e-4,2.09e-4 0.0017,1.32e-4 0.0026,5.29e-4 0.01117,-0.01061 0.02218,-0.02217 0.03307,-0.03307 0.01354,-0.0145 0.02644,-0.02945 0.03876,-0.04496 -0.0043,0.0021 -0.0085,0.0044 -0.01292,0.0062 -0.01232,0.0021 -0.02428,0.007 -0.03669,0.0057 -0.05085,-0.0052 -0.07087,-0.04634 -0.08268,-0.0894 -0.0087,-0.02537 -0.01816,-0.05068 -0.02739,-0.07596 z m 0.137976,0.06615 c 9.26e-4,0.0026 0.0019,0.0048 0.0026,0.0062 6.08e-4,0.0013 0.0028,0.0044 0.0026,0.0031 -6.88e-4,-0.0037 -0.0027,-0.0068 -0.0052,-0.0093 z m 0.03411,0.132292 c -0.0079,0.0093 -0.01595,0.01849 -0.02429,0.02739 -0.0059,0.0059 -0.01176,0.01169 -0.01757,0.01757 0.01394,0.004 0.0279,0.008 0.04186,0.01188 z m -0.271301,0.04134 c 0.0028,0.0092 0.0058,0.01823 0.0088,0.02739 0.0034,0.0094 0.0069,0.01894 0.01033,0.02842 -0.0033,-0.01508 -0.0067,-0.03024 -0.0093,-0.04548 -0.0022,-0.0024 -0.0045,-0.0044 -0.0067,-0.0067 -0.0011,-0.0011 -0.002,-0.0024 -0.0031,-0.0036 z m 0.140043,0.09147 c 0.0012,0.0045 0.0023,0.009 0.0036,0.01344 0.01272,0.04242 0.02949,0.07166 0.06305,0.100253 0.0025,0.0016 0.01705,0.01339 0.02325,0.01188 0.0017,-5.29e-4 -8.73e-4,-0.0046 5.29e-4,-0.0057 0.004,-0.0032 0.0095,-0.0037 0.01395,-0.0062 0.0096,-0.0053 0.01823,-0.01143 0.02687,-0.01757 v -0.05943 c -0.0029,-7.94e-4 -0.0059,-0.0013 -0.0088,-0.0021 -0.03495,-0.0087 -0.06886,-0.02096 -0.103869,-0.02946 -0.0062,-0.0016 -0.01254,-0.0032 -0.0186,-0.0052 z" />
    </clipPath>
    <clipPath
       clipPathUnits="userSpaceOnUse"
       id="clipPath4805">
      <path
         id="path4807"
         style="fill:#ff0000;fill-opacity:1;fill-rule:nonzero;stroke:none;stroke-width:0.264583"
         d="m 62.660257,30.610019 v 23.053373 c 7.94e-4,0.0027 0.0016,0.0055 0.0026,0.0083 0.0013,-0.0016 0.0026,-0.0036 0.0047,-0.0036 0.0016,0 0.0027,0.0016 0.0041,0.0026 h 5.3e-4 c 0.0021,8.5e-5 0.0038,0.003 0.0057,0.0052 -2.01e-4,-0.0019 -1.93e-4,-0.0035 -5.29e-4,-0.0052 -0.0011,-0.0095 0.003,-0.01471 0.0078,-0.0155 0.0047,-7.94e-4 0.01021,0.003 0.01138,0.01241 v 5.29e-4 c 0.0016,0.0013 0.0028,0.0031 0.0036,0.0057 0.0034,0.0019 0.0063,0.0058 0.0062,0.01291 -6.3e-5,0.0047 -5.29e-4,0.0093 -0.0011,0.01394 5.29e-4,0.0021 7.94e-4,0.0044 5.29e-4,0.0072 -2.64e-4,0.0049 -2.01e-4,0.0097 -5.29e-4,0.01447 0.0013,0.0056 0.0026,0.0113 0.0036,0.01707 0.0011,0.0073 0.0021,0.01439 0.0031,0.0217 7.93e-4,0.0065 0.0011,0.01315 0.0016,0.01963 7.94e-4,0.0071 0.0013,0.01461 0.0016,0.0217 2.64e-4,0.0068 5.29e-4,0.01336 5.29e-4,0.02016 3.7e-5,0.0074 1.35e-4,0.01524 0,0.02273 2.17e-4,0.0026 0.0011,0.0051 0.0011,0.0078 5.29e-4,0.01233 0.0013,0.02434 0.0016,0.03669 2.64e-4,0.0086 0.0021,0.01725 0.0026,0.02585 -1.3e-5,0.0059 5.6e-5,0.01167 0,0.01757 -7.9e-5,0.0071 -5.29e-4,0.01461 -0.0011,0.0217 -5.29e-4,0.0089 -0.0021,0.01746 -0.0031,0.02635 -0.0011,0.01024 -0.0016,0.02082 -0.0031,0.031 -0.0013,0.0091 -0.0016,0.01778 -0.0031,0.02687 -0.0013,0.0097 -0.0045,0.01934 -0.0062,0.02894 -0.0013,0.0084 -0.0019,0.01693 -0.0031,0.02532 -2.64e-4,0.0019 -0.0013,0.0037 -0.0016,0.0057 -5.29e-4,0.0095 -7.94e-4,0.01889 -0.0011,0.02842 -2.62e-4,0.01778 -1.5e-5,0.03596 -5.29e-4,0.05374 0,0.01675 -0.0042,0.03277 -0.0093,0.04857 -0.0035,0.01111 -0.008,0.02178 -0.01241,0.03256 -0.0042,0.01029 -0.01209,0.01183 -0.01654,0.0083 v 1.80454 c 0.0168,-0.02188 0.035,-0.04295 0.05271,-0.06408 0.02553,-0.03199 0.05337,-0.0619 0.08165,-0.09147 2.3e-4,-2.64e-4 2.64e-4,-7.94e-4 5.29e-4,-0.0011 5.29e-4,-5.29e-4 5.29e-4,-0.0011 0.0011,-0.0016 0.01093,-0.01466 0.02352,-0.02842 0.03462,-0.04289 0.0096,-0.01254 0.01963,-0.02463 0.02842,-0.03772 0.01217,-0.01738 0.02193,-0.0364 0.03152,-0.05529 0.0079,-0.01635 0.01648,-0.03198 0.02119,-0.04961 0.0038,-0.01535 0.0053,-0.03129 0.0062,-0.04702 7.94e-4,-0.01402 7.94e-4,-0.02783 0.0011,-0.04186 2.65e-4,-0.01394 0.0019,-0.02813 0.0041,-0.04186 0.0027,-0.0118 0.0046,-0.02376 0.0067,-0.03565 0.0024,-0.0132 0.0033,-0.02641 0.0041,-0.03979 5.29e-4,-0.01529 0.0021,-0.03091 0.0047,-0.04599 0.0031,-0.0186 0.0057,-0.03708 0.0078,-0.05581 0.0026,-0.02828 0.0029,-0.0569 0.0036,-0.08527 5.29e-4,-0.02521 0.01312,-0.03802 0.02585,-0.03927 0.01442,-0.0013 0.02968,0.01225 0.02894,0.04082 -7.94e-4,0.02996 -0.0019,0.06007 -0.0047,0.08992 -0.0016,0.01259 -0.003,0.02521 -0.0047,0.03772 0.003,-0.01431 0.0061,-0.02863 0.0093,-0.04289 0.0048,-0.02133 0.01662,-0.03196 0.02791,-0.03359 0.01651,-0.0024 0.03243,0.01484 0.02532,0.04599 -0.01638,0.07184 -0.02864,0.144341 -0.04806,0.21549 -0.0013,0.0047 -0.0033,0.0093 -0.0047,0.01394 -0.0013,0.02164 -0.0037,0.04313 -0.0067,0.0646 -0.0058,0.04292 -0.01386,0.08326 -0.02997,0.123507 -0.0068,0.01633 -0.01561,0.03184 -0.02532,0.04651 0.03984,-0.02574 0.0797,-0.05114 0.120406,-0.07545 0.0087,-0.0052 0.0168,-0.0077 0.02376,-0.0083 0.03036,-0.0024 0.04178,0.03289 0.0041,0.0553 -0.05023,0.02999 -0.0999,0.06096 -0.148828,0.09302 0.01918,0.01982 0.03401,0.04049 0.02791,0.07028 -1.38e-4,7.94e-4 -2.51e-4,0.0013 -5.29e-4,0.0021 0.0076,-0.0056 0.01513,-0.0091 0.0217,-0.0098 0.01908,-0.0021 0.03111,0.01408 0.02326,0.0341 0.01844,-0.01445 0.03691,-0.02883 0.0553,-0.04341 0.09264,-0.07113 0.186571,-0.140539 0.28112,-0.209291 v -25.19952 z m 0.691431,25.333854 c -0.07172,0.05265 -0.142809,0.106005 -0.213424,0.160195 -0.04652,0.03685 -0.09385,0.0728 -0.140041,0.110072 0.01291,-0.0044 0.02487,-0.0063 0.03514,-0.0067 0.06801,-0.0026 0.07641,0.07447 -0.0083,0.112655 -0.0114,0.0052 -0.02238,0.01119 -0.03307,0.01757 0.01643,0.02252 0.0099,0.06113 -0.03617,0.09147 -0.01352,0.0089 -0.02727,0.01749 -0.04083,0.02635 0.0051,0.0019 0.01005,0.0042 0.01447,0.0072 l 0.0016,-0.0016 c 0.0024,0.003 0.0047,0.0064 0.0072,0.0093 l 0.0016,0.0016 c 0.0021,0.0026 0.0044,0.0052 0.0067,0.0078 0.01654,-0.01638 0.02352,-0.02313 0.02946,-0.02894 0.0054,-0.0109 0.01193,-0.02423 0.02326,-0.04702 0.01722,-0.03463 0.04106,-0.05046 0.06201,-0.05219 0.01844,-0.0016 0.0347,0.0079 0.04289,0.02532 0.03213,0.0127 0.04207,0.05864 -0.0041,0.104386 -0.02281,0.02236 -0.02837,0.02792 -0.03462,0.03411 -0.01013,0.02024 -0.01214,0.02416 -0.04392,0.08733 -0.01736,0.03346 -0.03425,0.06697 -0.05271,0.09974 h 0.38292 z m -0.455269,0.05323 -5.29e-4,5.29e-4 c 5.29e-4,2.65e-4 0.0011,7.94e-4 0.0016,0.0011 -5.3e-4,-2.65e-4 -5.3e-4,-0.0011 -0.0011,-0.0016 z m -0.210841,0.296106 c -2.62e-4,0.0021 -0.0013,0.0041 -0.0011,0.0062 2.64e-4,-5.29e-4 0.0016,-0.0021 0.0016,-0.0026 -3.9e-5,-0.0011 -2.54e-4,-0.0024 -5.29e-4,-0.0036 z m -0.02585,0.03927 v 0.0062 c 0.0016,-0.0016 0.003,-0.0035 0.0047,-0.0052 -0.0011,-1.35e-4 -0.0019,-2.52e-4 -0.0031,-5.29e-4 -5.29e-4,-1.14e-4 -0.0011,-2.52e-4 -0.0016,-5.3e-4 z m 0.181383,0.175183 c 5.29e-4,0.0016 5.29e-4,0.0027 0.0011,0.0041 8.5e-5,-7.94e-4 5.29e-4,-0.0013 5.29e-4,-0.0021 0,-7.94e-4 -0.0019,-0.0028 -0.0016,-0.0021 z" />
    </clipPath>
    <clipPath
       clipPathUnits="userSpaceOnUse"
       id="clipPath5350">
      <path
         id="path5352"
         style="fill:#ff0000;fill-opacity:1;fill-rule:nonzero;stroke:none;stroke-width:0.264583"
         d="m 54.54446,50.481455 c 0.08246,0.05022 0.147629,0.120984 0.187984,0.219612 0.143964,0.02535 0.287732,0.05245 0.430493,0.08423 0.272389,0.06941 0.532436,0.172987 0.787247,0.28937 0.334522,0.0028 0.669257,0.0056 1.003792,0.0078 0.354503,7.94e-4 0.709008,7.94e-4 1.063511,0.0011 0.162504,-0.03107 0.323807,-0.05914 0.477229,-0.08475 0.866293,-0.144475 1.624642,-0.223073 2.500393,-0.327093 0.05382,-0.0057 0.107675,-0.01132 0.161499,-0.01704 -0.0056,-0.05775 -0.01098,-0.115401 -0.01765,-0.173106 z m 7.914534,0 c 0.0013,0.01463 0.0024,0.0293 0.0036,0.04392 0.278023,0.0013 0.490111,0.07624 0.632499,0.189642 v -0.233565 z m -0.119956,5.357487 c -0.570356,0.218662 -1.141019,0.437208 -1.704318,0.673305 -0.01197,0.25222 -0.19474,0.541331 -0.60861,0.760112 -0.595518,0.314843 -0.627256,0.33368 -1.228126,0.643851 -0.0985,0.05085 -0.197353,0.100932 -0.295996,0.151401 -0.131099,0.10438 -0.259691,0.166418 -0.378565,0.192743 -0.167684,0.08469 -0.388833,0.195028 -0.545257,0.257334 -0.06186,0.02463 -0.125978,0.04311 -0.189023,0.06459 -1.219253,0.415466 -0.943328,-0.151467 -0.297554,-1.251011 -0.01361,0.0024 -0.02744,0.0047 -0.04102,0.0072 -1.043798,0.197907 -1.272232,-0.515519 -0.648076,-1.013311 -0.05799,7.94e-4 -0.115976,0.003 -0.173964,0.0041 -0.0088,0.0013 -0.01765,0.0024 -0.02648,0.0036 -0.322927,0.04542 -0.689436,0.11447 -1.008984,0.171556 -0.248758,0.03202 -0.496181,0.07587 -0.746223,0.0956 -0.257295,0.02029 -0.515095,0.03174 -0.772709,0.03565 -0.431897,0.0864 -0.866793,0.157497 -1.305499,0.201011 -0.275779,0.02735 -0.553217,0.04879 -0.830349,0.04599 -0.264554,-0.0027 -0.527127,-0.04139 -0.790883,-0.06201 -0.69578,-0.05439 -1.145052,-0.324719 -1.362623,-0.657799 -0.07855,-0.01595 -0.155445,-0.03276 -0.229526,-0.05168 -0.197252,0.01093 -0.39426,0.02378 -0.591474,0.03617 -0.20868,0.08485 -0.421491,0.157786 -0.636652,0.223745 -0.259061,0.561311 -0.661871,1.094205 -1.05676,1.540898 -0.11634,0.131606 -0.240984,0.256043 -0.361426,0.383932 -0.348255,0.316258 -0.426473,0.410095 -0.810098,0.671755 -0.600261,0.409418 -1.253198,0.681319 -1.976946,0.777682 -0.161712,0.01328 -0.322922,0.03249 -0.485019,0.03979 -0.589523,0.02653 -1.179662,-0.04695 -1.76819,-0.06511 -0.459248,-0.02946 -0.918363,-0.06109 -1.378201,-0.0801 -0.524656,-0.02238 -1.049754,-0.03482 -1.574495,-0.05529 -0.60936,-0.02143 -1.219355,-0.03526 -1.828946,-0.04857 -0.675353,-0.01646 -1.351198,-0.03484 -2.023164,-0.109028 -0.604435,-0.07122 -1.2061,-0.162757 -1.805577,-0.267668 -0.662179,-0.113047 -1.329931,-0.22624 -1.959811,-0.467128 -0.416726,-0.175927 -0.813373,-0.382191 -1.192812,-0.628863 -0.420568,-0.271631 -0.835837,-0.560227 -1.153348,-0.951823 -0.07466,-0.0218 -0.149373,-0.04358 -0.223816,-0.06614 -0.0019,0.0011 -0.0035,0.0021 -0.0052,0.0031 -0.320915,0.183435 -0.719167,0.409976 -1.100901,0.236148 -0.141415,-0.0644 -0.246607,-0.189221 -0.369735,-0.283685 -0.05454,-0.106446 -0.121442,-0.20749 -0.163576,-0.319343 -0.01087,-0.02881 -0.0188,-0.05812 -0.02701,-0.08785 -0.22526,0.10723 -0.530872,-0.01209 -0.795036,-0.450073 -0.259937,-0.01923 -0.519836,-0.04044 -0.779458,-0.06304 v 0.0279 c 0.0176,0.05523 0.03433,0.110915 0.04414,0.167937 0.004,0.0083 0.0076,0.01677 0.01194,0.02479 0.0068,0.01304 0.0059,0.02357 0.001,0.02945 0.0019,0.0053 0.0036,0.01045 0.0057,0.01603 0.004,0.01082 0.0078,0.0217 0.01298,0.03204 9.04e-4,0.0019 0.0037,0.0067 0.0052,0.0093 0.01924,0.03286 -0.01018,0.05507 -0.03064,0.02273 -0.0029,-0.0044 -0.005,-0.0081 -0.0073,-0.01291 0.0097,0.03451 0.01981,0.06892 0.02804,0.103864 0.0013,0.0061 0.0029,0.01243 0.0042,0.0186 0.0081,0.03721 -0.02929,0.04329 -0.03739,0.0083 -0.0013,-0.0059 -0.0034,-0.01167 -0.0047,-0.01757 -0.0098,-0.0417 -0.02184,-0.08326 -0.03323,-0.124532 v 4.882091 h 38.00751 v -4.363809 c -0.0055,0.0042 -0.01109,0.0082 -0.01662,0.01241 -0.0016,0.008 -0.0067,0.01704 -0.01611,0.02585 -0.0451,0.0421 -0.09,0.08445 -0.134497,0.127117 0.05041,0.01079 0.04984,0.07617 -0.02595,0.110581 -0.01141,0.0052 -0.02201,0.01119 -0.03272,0.01757 0.01643,0.02251 0.0097,0.06114 -0.03635,0.09146 -0.01367,0.009 -0.02735,0.01741 -0.04102,0.02635 0.0053,0.0019 0.01008,0.0041 0.01454,0.0072 l 0.0016,-0.0016 c 0.0024,0.003 0.0048,0.0064 0.0073,0.0093 l 0.0016,0.0016 c 0.0021,0.0026 0.0044,0.0052 0.0068,0.0078 0.01654,-0.01638 0.02364,-0.02312 0.0296,-0.02894 0.0054,-0.0109 0.01151,-0.02423 0.02284,-0.04702 0.01723,-0.03463 0.04136,-0.05046 0.06232,-0.05219 0.01845,-0.0016 0.03493,0.0079 0.0431,0.02532 0.03213,0.0127 0.04021,0.05863 -0.0041,0.104382 -0.02281,0.02236 -0.02854,0.02789 -0.03479,0.0341 -0.01013,0.02024 -0.01239,0.02416 -0.04414,0.08733 -0.03273,0.06307 -0.06438,0.126285 -0.105415,0.184474 -0.05167,0.07328 -0.124702,0.04554 -0.111648,-0.01653 -0.0034,0.0016 -0.007,0.0042 -0.01039,0.0057 -0.01024,0.0028 -0.01962,0.0066 -0.03012,0.0083 -0.0393,0.0063 -0.08065,-0.0066 -0.104378,-0.03979 -0.0056,-0.0079 -0.0088,-0.01765 -0.01297,-0.02635 -0.0013,-0.009 -0.0032,-0.01778 -0.0036,-0.02687 -0.0013,-0.02492 0.0059,-0.04927 0.01454,-0.07286 -0.0011,5.29e-4 -0.0021,0.0013 -0.0031,0.0021 -0.07466,0.04488 -0.127079,-0.0071 -0.09555,-0.05787 -0.03312,-0.01201 -0.04243,-0.05819 0.0036,-0.103864 0.08554,-0.08197 0.172823,-0.161391 0.262243,-0.238729 3.5e-5,-0.0038 0.0016,-0.0076 0.0021,-0.01138 -0.0011,0.0019 -0.0021,0.0034 -0.0031,0.0052 -0.02711,0.04655 -0.07506,0.02831 -0.05089,-0.02016 0.0066,-0.01315 0.0151,-0.02527 0.02284,-0.03772 0.0038,-0.0056 0.0076,-0.011 0.01143,-0.01653 v -5.29e-4 c 0.0011,-0.0066 0.0036,-0.01389 0.0083,-0.0217 0.0073,-0.01228 0.0147,-0.02445 0.02284,-0.03617 0.01824,-0.02418 0.03814,-0.04712 0.05764,-0.07028 0.02566,-0.03199 0.05363,-0.06189 0.08205,-0.09146 2.31e-4,-2.65e-4 -1.62e-4,-7.94e-4 5.32e-4,-0.0011 5.31e-4,-5.3e-4 0.0011,-0.0011 0.0016,-0.0016 0.01098,-0.01466 0.02313,-0.02841 0.03427,-0.04289 0.0096,-0.01254 0.01973,-0.02463 0.02856,-0.03772 0.01223,-0.01738 0.02255,-0.03639 0.0322,-0.05529 0.008,-0.01635 0.01656,-0.03198 0.0213,-0.04961 0.0029,-0.01167 0.0047,-0.02365 0.0057,-0.03565 -0.07884,-0.01841 -0.164568,-0.05915 -0.253416,-0.131767 l -0.06958,-0.05839 c -0.126377,-0.118114 -0.217482,-0.252426 -0.276265,-0.413387 -0.01361,-0.03791 -0.02664,-0.07616 -0.03999,-0.1142 z m 0.723894,0.728594 c -0.0011,0.0081 -0.0019,0.01622 -0.0031,0.02429 -0.0058,0.04292 -0.01393,0.08325 -0.03012,0.123498 -0.0067,0.01608 -0.01531,0.0315 -0.02491,0.04599 0.02996,-0.01923 0.0599,-0.03842 0.09036,-0.05684 v -0.135385 c -0.01018,5.3e-4 -0.02132,-7.93e-4 -0.0322,-0.0016 z m 0.03219,0.200492 c -0.03087,0.01889 -0.06112,0.03856 -0.09139,0.05839 0.0024,0.0024 0.0044,0.0043 0.0068,0.0067 0.02825,-0.02117 0.05633,-0.04255 0.08464,-0.06356 z m -0.138131,0.08991 -5.32e-4,5.29e-4 c 5.32e-4,5.29e-4 0.0013,5.29e-4 0.0021,0.0011 -5.32e-4,-5.29e-4 -0.0011,-0.0011 -0.0016,-0.0016 z m -0.238875,0.510533 c 5.32e-4,0.0016 0.0011,0.0027 0.0016,0.0041 8e-5,-7.94e-4 5.32e-4,-0.0013 5.32e-4,-0.0021 0,-7.93e-4 -0.0024,-0.0028 -0.0021,-0.0021 z" />
    </clipPath>
    <clipPath
       clipPathUnits="userSpaceOnUse"
       id="clipPath5761">
      <path
         id="path5763"
         style="fill:#ff0000;fill-opacity:1;fill-rule:nonzero;stroke:none"
         d="M 96.236329,119.42188 V 227.3125 H 238.40821 V 119.42188 Z m 109.193361,53.75195 c 2.96128,-0.0285 3.0945,3.05559 -0.0488,3.29102 -3.57318,0.26765 -3.95666,0.292 -7.53125,0.57421 -2.83904,0.22416 -5.69096,0.5434 -8.54297,0.45118 -3.25211,-0.10518 -3.25198,-3.39603 0,-3.28711 2.76398,0.0926 5.52993,-0.22405 8.28125,-0.44141 3.5428,-0.27991 4.0051,-0.31089 7.54688,-0.57617 0.1014,-0.008 0.1994,-0.0108 0.29492,-0.0117 z" />
    </clipPath>
    <clipPath
       clipPathUnits="userSpaceOnUse"
       id="clipPath5957">
      <path
         id="path5959"
         style="fill:#ff0000;fill-opacity:1;fill-rule:nonzero;stroke:none"
         d="M 96.408204,120.11524 V 227.14453 H 238.25 v -50.76367 c -0.53026,0.82602 -1.12596,1.65111 -1.79297,2.47461 -1.51992,4.72754 -5.90306,8.85467 -12.98437,10.66992 -2.519,1.56739 -5.13866,2.98578 -7.83984,4.19727 -15.03037,6.74115 -25.59079,2.56874 -28.57032,-5.05469 -0.36011,-0.0422 -0.65182,-0.0741 -1.18359,-0.13672 -31.80989,-3.74578 -27.65604,-32.8346 3.49414,-32.52344 0.49445,0.005 0.99589,0.0171 1.50391,0.0371 0.48555,0.0191 0.96958,0.0624 1.45507,0.082 4.53225,0.18454 2.28833,-0.01 8.48438,0.38867 4.34728,0.27969 7.42065,0.55884 11.30859,0.90625 5.60542,-3.66199 10.85372,-5.16314 15.32227,-5.08008 4.56231,0.0848 8.31203,1.82102 10.80273,4.5918 v -36.81836 z" />
    </clipPath>
    <clipPath
       clipPathUnits="userSpaceOnUse"
       id="clipPath5974">
      <path
         id="path5976"
         style="fill:#ff0000;fill-opacity:1;fill-rule:nonzero;stroke:none;stroke-width:0.264583"
         d="m 25.449093,23.481254 v 13.792958 h 25.865604 c 0.854953,-0.365083 1.905045,-0.588325 3.136759,-0.605132 0.480312,-0.0066 0.988198,0.01855 1.522905,0.07855 0.929251,0.104283 1.864992,0.151485 2.794146,0.255283 0.247234,0.02762 0.492887,0.06538 0.739489,0.09819 0.342524,0.04556 0.669144,0.103841 0.980302,0.173117 h 2.859257 V 23.481254 Z" />
    </clipPath>
    <clipPath
       clipPathUnits="userSpaceOnUse"
       id="clipPath7142">
      <path
         id="path7144"
         style="fill:#ff0000;fill-opacity:1;fill-rule:nonzero;stroke:none;stroke-width:0.264583"
         d="m 74.5445,31.434276 c -0.03042,0.172307 -0.06794,0.343564 -0.11834,0.51108 0.0503,0.009 0.100708,0.01812 0.150379,0.03049 0.03579,0.0087 0.0718,0.01736 0.107487,0.02635 0.0074,0.0019 0.01482,0.0038 0.02222,0.0057 0.0024,5.29e-4 0.0074,7.93e-4 0.0088,0.0016 v 5.29e-4 c -0.0033,0.0016 -0.0073,-5.29e-4 -0.01085,-0.0011 -0.05781,-0.0072 -0.09745,-0.0054 -0.122989,0.0036 0.01288,0.0029 0.02588,0.0053 0.03876,0.0083 0.0422,0.01011 0.08439,0.02029 0.127124,0.0279 0.347208,0.06154 0.425995,0.314373 0.287319,0.451652 0.0547,0.02238 0.109408,0.04504 0.161232,0.07338 v 5.29e-4 c 0.467368,0.255537 -0.66131,0.09267 -0.276987,0.46147 5.29e-4,5.29e-4 0.0021,0.0019 0.0016,0.0016 -0.01421,-0.0059 -0.02771,-0.01302 -0.04186,-0.01913 -0.03832,-0.0164 -0.0773,-0.03201 -0.115755,-0.04806 -0.0026,-0.0011 -0.0052,-0.0021 -0.0078,-0.0031 -0.0061,0.0044 -0.01228,0.0086 -0.0181,0.01344 -0.01632,0.01368 -0.03254,0.02773 -0.04857,0.04186 -5.3e-4,0.0089 -7.94e-4,0.0173 -0.0016,0.02376 -0.0045,0.04094 -0.0097,0.08195 -0.01704,0.122473 -0.01035,0.05677 -0.02355,0.11308 -0.03772,0.168981 0.0064,0.04594 0.0081,0.09695 0.0036,0.152448 -0.01775,0.218712 -0.02752,0.438036 -0.03462,0.657323 -0.0016,0.12515 -0.0021,0.09232 -0.0011,0.173633 0.05601,0.07316 0.111339,0.147746 0.166915,0.223758 0.613116,0.767955 1.25912,1.509149 1.890842,2.261878 0.535815,0.666043 1.088773,1.330547 1.498616,2.085144 0.07588,0.139708 0.141967,0.284567 0.212907,0.426847 0.379228,0.819115 0.494546,1.678572 0.524516,2.569869 0.0214,0.638246 -0.114787,1.261573 -0.235646,1.883605 -0.07822,0.418254 -0.216845,0.821386 -0.344165,1.226283 -0.114099,0.372655 -0.238543,0.741204 -0.348297,1.115177 -0.09142,0.408302 -0.293262,0.77657 -0.447003,1.161687 -0.115824,0.258956 -0.165299,0.537806 -0.231511,0.811835 -0.09436,0.343971 -0.153194,0.696531 -0.208772,1.048517 -0.04147,0.336296 -0.07614,0.671555 -0.14056,1.004588 -0.06167,0.291576 -0.149693,0.577266 -0.240294,0.860931 -0.162703,0.500732 -0.460391,0.948184 -0.884701,1.266589 -0.126386,0.09484 -0.27151,0.161928 -0.40721,0.24288 -0.0074,0.0031 -0.01484,0.0061 -0.02222,0.0093 0.380334,0.206505 0.323353,0.807831 -0.392223,1.03818 -0.08297,0.02671 -0.178642,0.04075 -0.2682,0.05374 -0.15738,0.01667 -0.315066,0.03085 -0.47284,0.04341 -0.06484,0.0039 -0.129537,0.008 -0.194305,0.01291 -0.05314,0.01757 -0.104751,0.03226 -0.153995,0.04237 v 0.425815 h 9.45937 V 31.434276 Z m 0.145728,1.503786 c -1.4e-5,0.0062 1.64e-4,0.0123 0,0.0186 -1.01e-4,0.0038 -5.3e-4,0.0091 -5.3e-4,0.01344 0.01595,-0.0016 0.03332,-0.004 0.05323,-0.0088 -0.0177,-0.0075 -0.0352,-0.01543 -0.05271,-0.02326 z" />
    </clipPath>
  </defs>
  <g
     inkscape:label="Warstwa 1"
     inkscape:groupmode="layer"
     id="layer1"
     transform="matrix(0.61949464,0,0,0.79124302,-14.862136,-18.274293)">
    <ellipse
       style="fill:#ffffff;fill-opacity:1;stroke:#000000;stroke-width:0.264583;stroke-opacity:1;paint-order:normal"
       id="path2675"
       cx="44.091072"
       cy="55.874779"
       rx="18.871326"
       ry="5.2613606"
       clip-path="url(#clipPath5350)"
       transform="matrix(0.99513199,0,0,1.0000608,0.24538274,-0.86429868)" />
    <path
       style="fill:#000000;fill-opacity:1;stroke:#000000;stroke-width:0.264583;stroke-opacity:1"
       d="M 25.654568,30.437624 25.306709,55.30951"
       id="path2488"
       clip-path="url(#clipPath4241)" />
    <path
       style="fill:#ffffff;fill-opacity:1;stroke:#000000;stroke-width:0.869303;stroke-dasharray:none;stroke-opacity:1;paint-order:normal"
       id="path6646"
       sodipodi:type="arc"
       sodipodi:cx="74.242424"
       sodipodi:cy="42.784496"
       sodipodi:rx="8.8642521"
       sodipodi:ry="11.097297"
       sodipodi:start="4.7027675"
       sodipodi:end="1.5663813"
       sodipodi:arc-type="slice"
       d="m 74.157138,31.687713 a 8.8642521,11.097297 0 0 1 7.726763,5.47252 8.8642521,11.097297 0 0 1 0.06231,11.113697 8.8642521,11.097297 0 0 1 -7.664646,5.607755 l -0.03914,-11.097189 z"
       clip-path="url(#clipPath7142)"
       transform="translate(-11.730394,1.1681381)" />
    <path
       style="fill:#ff0000;fill-opacity:1;stroke:#000000;stroke-width:0.90653;stroke-dasharray:none;stroke-opacity:1;paint-order:normal"
       d="m 156.64809,226.79231 c -30.56545,-1.11599 -55.10269,-8.00145 -59.472162,-16.68864 -0.776243,-1.54329 -0.787458,-3.66952 -0.218215,-41.36997 0.330047,-21.85868 0.612851,-41.52815 0.628455,-43.70993 l 0.02837,-3.96687 3.370022,3.29685 c 7.98492,7.81153 25.02728,13.4245 47.94928,15.79228 9.19332,0.94964 28.55134,0.94917 37.74924,-9.3e-4 16.72333,-1.72744 28.93516,-4.79548 39.16619,-9.83992 4.24706,-2.09403 5.96127,-3.25746 8.71559,-5.91527 l 3.42868,-3.30853 -3.7e-4,6.5112 c -3.9e-4,7.04752 -0.73419,51.82313 -1.15789,70.65404 -0.30152,13.40044 -0.34673,13.55113 -4.98967,16.63294 -12.54883,8.32943 -42.66571,13.10054 -75.19752,11.91275 z"
       id="path7146"
       transform="scale(0.26458333)" />
    <path
       style="fill:#ffffff;fill-opacity:1;stroke:#000000;stroke-width:0.255984;stroke-opacity:1"
       d="M 63.22364,30.611962 62.788118,56.700533"
       id="path2482"
       clip-path="url(#clipPath4805)" />
  </g>
  <g
     inkscape:groupmode="layer"
     id="layer2"
     inkscape:label="Warstwa 2"
     clip-path="url(#clipPath5974)"
     transform="matrix(0.61949464,0,0,0.79124302,-14.862136,-18.274293)">
    <ellipse
       style="fill:#ffffff;fill-opacity:1;stroke:#000000;stroke-width:0.264583;stroke-opacity:1"
       id="path2418"
       cx="44.398155"
       cy="30.377684"
       rx="18.816946"
       ry="6.7642612" />
    <path
       style="fill:#f9f9f9;fill-opacity:1;stroke:#000000;stroke-width:0.90653;stroke-dasharray:none;stroke-opacity:1;paint-order:normal"
       d="m 149.44321,138.74128 c -18.98281,-1.88855 -34.33635,-6.29983 -43.76727,-12.57495 -8.572683,-5.70406 -10.348361,-11.67386 -5.40629,-18.17583 4.85485,-6.38723 20.70042,-12.871839 38.42111,-15.723382 17.46198,-2.809911 40.73853,-2.814103 58.16146,-0.01047 24.46443,3.936717 41.14132,12.982672 41.14132,22.316072 0,4.3531 -2.42841,7.84555 -8.0614,11.59361 -9.5956,6.38469 -24.79482,10.70175 -44.36142,12.60003 -8.42898,0.81776 -27.79077,0.80431 -36.12751,-0.0251 z"
       id="path7375"
       transform="scale(0.26458333)" />
  </g>
  <g
     inkscape:groupmode="layer"
     id="layer3"
     inkscape:label="Warstwa 3"
     transform="matrix(0.02997536,0,0,0.03058063,0.13307901,-0.49600607)">
    <path
       style="fill:#ffffff;fill-opacity:0;stroke:#000000;stroke-width:20.102;stroke-dasharray:none"
       d="m 161.35837,462.42948 c 6.83821,-3.33131 6.41982,-13.09274 11.80671,-17.71007 8.11153,-6.95274 15.13063,-7.42725 25.5812,-9.83892 3.25895,-0.75206 6.56858,-2.66857 9.83893,-1.96779 13.40982,2.87353 29.68322,15.97726 39.3557,23.61343 5.47269,4.32054 11.87457,7.97292 15.74228,13.7745 5.54191,8.31283 8.39243,18.15967 11.80671,27.54897 2.17657,5.98559 9.33969,29.27688 1.96779,35.42014 -8.15327,6.79437 -23.43389,3.56962 -31.48456,3.93557 -21.52323,0.97832 -56.56444,5.33723 -74.77583,-9.83893 -3.63367,-3.02805 -5.08911,-7.98142 -7.87115,-11.80671 -5.64388,-7.76034 -14.55397,-16.55993 -11.8067,-27.549 1.36851,-5.47402 9.59937,-6.04335 13.77449,-9.8389 3.79069,-3.44609 6.06251,-8.34501 9.83893,-11.80672 4.47322,-4.10045 20.42151,-15.26711 27.54899,-15.74228 28.08057,-1.87203 46.02781,35.50044 51.16241,57.06576 1.68025,7.05707 3.46107,28.52126 1.96778,29.51678 -6.14222,4.0948 -16.74678,4.36473 -23.61342,3.93557 -7.23086,-0.45193 -14.65595,-0.0615 -21.64563,-1.96778 -18.26108,-4.98031 -44.35608,-21.80747 -53.1302,-39.35572 -9.9103,-19.8206 -3.27501,-21.1641 3.93557,-37.3879 9.48308,-21.33692 9.22862,-29.51678 35.42013,-29.51678 31.94236,0 51.72851,21.21053 66.90469,47.22685 1.61602,2.77032 8.70958,21.00112 5.90336,27.54898 -4.99912,11.6646 -49.43362,8.71915 -57.06577,7.87114 -12.26342,-1.36261 -22.8985,-5.90336 -35.42013,-5.90336"
       id="path2502" />
    <path
       style="fill:#ffffff;fill-opacity:0;stroke:#000000;stroke-width:20.102;stroke-dasharray:none"
       d="m 482.10734,501.78517 c -16.34456,-26.73332 7.36973,-48.31868 27.54897,-64.9369 1.32231,-1.08894 17.31232,-12.02177 19.67786,-11.80671 4.97488,0.45228 10.36603,2.25144 13.7745,5.90335 6.21757,6.66171 9.29063,15.68046 13.7745,23.61343 10.60574,18.76399 28.08573,48.29932 25.58118,70.84026 -1.97855,17.80706 -25.04826,0.17764 -31.48454,-1.96779 -16.76659,-5.58885 -36.71088,-5.04581 -53.13021,-11.80671 -23.40213,-9.63618 -39.7627,-33.79211 -33.45233,-59.03354 1.32551,-5.30204 6.75979,-17.31973 11.80671,-21.64565 3.28883,-2.819 16.81605,-7.21071 19.67783,-7.87114 10.17141,-2.34725 19.7212,-3.54221 29.51679,1.96779 25.62182,14.41227 43.29723,50.00199 51.1624,76.74361 0.84269,2.86512 6.75161,22.392 1.96778,25.58121 -2.78286,1.85526 -6.61217,1.08776 -9.8389,1.96779 -4.0023,1.09154 -7.89996,2.54029 -11.80671,3.93557 -10.55553,3.76984 -20.54297,9.37524 -31.48457,11.80671 -25.88694,5.75265 -62.59597,1.38518 -72.80804,-27.549 -3.36206,-9.52579 -3.19226,-20.67099 1.96778,-29.51678 6.9959,-11.99298 24.76823,-22.50112 37.3879,-27.54897 13.8095,-5.52381 52.16382,-12.91617 64.93693,-1.96779 2.22718,1.90902 2.84612,5.14755 3.93557,7.87114 3.77417,9.4355 7.09162,21.38408 5.90335,31.48455 -1.58268,13.45279 -20.47642,37.38792 -35.42014,37.38792"
       id="path2504" />
    <path
       style="fill:#ffffff;fill-opacity:0;stroke:#000000;stroke-width:20.102;stroke-dasharray:none"
       d="m 371.91137,552.94759 c 6.18353,19.81047 -0.81171,36.42863 -5.90335,55.09798 -1.4232,5.21832 0.39155,12.49693 -3.93558,15.74228 -1.57424,1.18068 -4.10056,0.78872 -5.90335,0 -8.87267,-3.88181 -16.61761,-10.10756 -25.58121,-13.7745 -9.36001,-3.8291 -27.24796,-7.03776 -37.3879,-1.96778 -23.71673,11.85836 -32.99152,43.5693 -39.35571,66.90468 -0.7116,2.60916 -2.49818,5.2192 -1.96779,7.87114 2.39506,11.97531 10.14379,16.6107 21.64564,19.67786 4.43645,1.18306 9.19467,-0.32713 13.7745,0 22.94427,1.63888 32.3442,1.82451 55.09797,-1.96779 8.95927,-1.4932 18.7371,-5.90335 27.549,-5.90335"
       id="path2506" />
    <path
       style="fill:#ffffff;fill-opacity:0;stroke:#000000;stroke-width:20.102;stroke-dasharray:none"
       d="m 165.29394,730.04825 c -0.84589,3.38354 -3.67353,11.98964 -1.96779,15.74228 7.38999,16.25796 29.0197,36.89083 41.32349,49.19461 25.97267,25.97267 58.84151,60.56636 94.45369,72.80805 2.9708,1.02121 59.74996,12.39858 66.90469,13.77449 18.82449,3.62011 41.84123,9.6836 61.00132,3.93558 6.4684,-1.94051 11.75137,-6.66097 17.71007,-9.83893 29.84728,-15.91855 51.43241,-25.25448 78.7114,-45.25904 48.52175,-35.58263 34.86637,-83.22051 66.90468,-125.93826"
       id="path2510" />
  </g>
</svg>
